<svg xmlns="http://www.w3.org/2000/svg" xmlns:xlink="http://www.w3.org/1999/xlink" width="50" zoomAndPan="magnify" viewBox="0 0 37.5 37.499999" height="50" preserveAspectRatio="xMidYMid meet" version="1.0"><defs><clipPath id="3573f7decc"><path d="M 1.125 1.054688 L 36.417969 1.054688 L 36.417969 36.417969 L 1.125 36.417969 Z M 1.125 1.054688 " clip-rule="nonzero"/></clipPath><clipPath id="a60a221081"><path d="M 18.75 36.375 C 14.042969 36.375 9.613281 34.542969 6.289062 31.210938 C 2.957031 27.886719 1.125 23.457031 1.125 18.75 C 1.125 14.042969 2.957031 9.613281 6.289062 6.289062 C 9.613281 2.957031 14.042969 1.125 18.75 1.125 C 23.457031 1.125 27.886719 2.957031 31.210938 6.289062 C 34.542969 9.621094 36.375 14.042969 36.375 18.75 C 36.375 23.457031 34.542969 27.886719 31.210938 31.210938 C 27.886719 34.542969 23.457031 36.375 18.75 36.375 Z M 18.75 2.183594 C 14.324219 2.183594 10.164062 3.90625 7.035156 7.035156 C 3.90625 10.164062 2.183594 14.324219 2.183594 18.75 C 2.183594 23.175781 3.90625 27.335938 7.035156 30.464844 C 10.164062 33.59375 14.324219 35.316406 18.75 35.316406 C 23.175781 35.316406 27.335938 33.59375 30.464844 30.464844 C 33.59375 27.335938 35.316406 23.175781 35.316406 18.75 C 35.316406 14.324219 33.59375 10.164062 30.464844 7.035156 C 27.335938 3.90625 23.175781 2.183594 18.75 2.183594 Z M 18.75 2.183594 " clip-rule="nonzero"/></clipPath><clipPath id="3400f2b242"><path d="M 8.984375 9.179688 L 28.910156 9.179688 L 28.910156 28.15625 L 8.984375 28.15625 Z M 8.984375 9.179688 " clip-rule="nonzero"/></clipPath></defs><g clip-path="url(#3573f7decc)"><g clip-path="url(#a60a221081)"><path fill="#eef8eb" d="M 1.125 1.125 L 36.347656 1.125 L 36.347656 36.347656 L 1.125 36.347656 Z M 1.125 1.125 " fill-opacity="1" fill-rule="nonzero"/></g></g><g clip-path="url(#3400f2b242)"><path fill="#eef8eb" d="M 18.945312 9.191406 C 13.445312 9.191406 8.984375 13.523438 8.984375 18.867188 C 8.984375 23.144531 11.839844 26.773438 15.796875 28.050781 C 16.296875 28.140625 16.480469 27.839844 16.480469 27.585938 C 16.480469 27.355469 16.46875 26.59375 16.464844 25.785156 C 13.695312 26.371094 13.109375 24.644531 13.109375 24.644531 C 12.65625 23.523438 12.003906 23.226562 12.003906 23.226562 C 11.097656 22.625 12.070312 22.636719 12.070312 22.636719 C 13.070312 22.707031 13.597656 23.636719 13.597656 23.636719 C 14.488281 25.117188 15.929688 24.6875 16.496094 24.441406 C 16.585938 23.816406 16.84375 23.386719 17.128906 23.144531 C 14.917969 22.902344 12.589844 22.070312 12.589844 18.363281 C 12.589844 17.304688 12.980469 16.441406 13.617188 15.765625 C 13.515625 15.519531 13.171875 14.539062 13.714844 13.203125 C 13.714844 13.203125 14.550781 12.945312 16.453125 14.195312 C 17.25 13.980469 18.101562 13.875 18.945312 13.871094 C 19.792969 13.875 20.648438 13.980469 21.441406 14.195312 C 23.34375 12.945312 24.179688 13.203125 24.179688 13.203125 C 24.722656 14.539062 24.378906 15.519531 24.277344 15.765625 C 24.914062 16.441406 25.300781 17.304688 25.300781 18.363281 C 25.300781 22.082031 22.972656 22.898438 20.753906 23.136719 C 21.109375 23.4375 21.429688 24.027344 21.429688 24.929688 C 21.429688 26.226562 21.417969 27.269531 21.417969 27.585938 C 21.417969 27.84375 21.597656 28.144531 22.101562 28.050781 C 26.058594 26.769531 28.910156 23.144531 28.910156 18.867188 C 28.910156 13.523438 24.449219 9.191406 18.945312 9.191406 Z M 12.714844 22.976562 C 12.695312 23.027344 12.617188 23.039062 12.546875 23.007812 C 12.472656 22.976562 12.433594 22.910156 12.457031 22.863281 C 12.476562 22.8125 12.554688 22.796875 12.628906 22.832031 C 12.699219 22.863281 12.742188 22.929688 12.714844 22.976562 Z M 13.207031 23.402344 C 13.160156 23.445312 13.066406 23.425781 13.003906 23.355469 C 12.9375 23.289062 12.925781 23.199219 12.972656 23.15625 C 13.023438 23.113281 13.113281 23.132812 13.179688 23.199219 C 13.242188 23.269531 13.257812 23.359375 13.207031 23.402344 Z M 13.542969 23.945312 C 13.480469 23.988281 13.382812 23.949219 13.320312 23.863281 C 13.257812 23.777344 13.257812 23.671875 13.320312 23.632812 C 13.382812 23.589844 13.480469 23.628906 13.542969 23.710938 C 13.605469 23.800781 13.605469 23.902344 13.542969 23.945312 Z M 14.109375 24.574219 C 14.058594 24.632812 13.941406 24.617188 13.855469 24.539062 C 13.769531 24.460938 13.742188 24.347656 13.796875 24.289062 C 13.855469 24.230469 13.972656 24.246094 14.058594 24.328125 C 14.144531 24.40625 14.167969 24.515625 14.109375 24.574219 Z M 14.847656 24.789062 C 14.820312 24.863281 14.710938 24.898438 14.597656 24.863281 C 14.484375 24.832031 14.410156 24.742188 14.433594 24.667969 C 14.457031 24.589844 14.570312 24.554688 14.683594 24.589844 C 14.796875 24.621094 14.871094 24.710938 14.847656 24.789062 Z M 15.683594 24.878906 C 15.683594 24.957031 15.589844 25.023438 15.472656 25.023438 C 15.351562 25.027344 15.253906 24.960938 15.253906 24.882812 C 15.253906 24.804688 15.347656 24.738281 15.464844 24.738281 C 15.585938 24.734375 15.683594 24.796875 15.683594 24.878906 Z M 16.503906 24.847656 C 16.519531 24.925781 16.433594 25.003906 16.316406 25.027344 C 16.203125 25.046875 16.09375 25 16.082031 24.921875 C 16.066406 24.839844 16.148438 24.761719 16.265625 24.742188 C 16.382812 24.71875 16.488281 24.765625 16.503906 24.847656 Z M 16.503906 24.847656 " fill-opacity="1" fill-rule="nonzero"/></g></svg>