<svg xmlns="http://www.w3.org/2000/svg" xmlns:xlink="http://www.w3.org/1999/xlink" width="50" zoomAndPan="magnify" viewBox="0 0 37.5 37.499999" height="50" preserveAspectRatio="xMidYMid meet" version="1.0"><defs><clipPath id="6014b3cf29"><path d="M 1.125 1.125 L 36.375 1.125 L 36.375 36.375 L 1.125 36.375 Z M 1.125 1.125 " clip-rule="nonzero"/></clipPath></defs><path fill="#eef8eb" d="M 23.351562 8.625 L 14.160156 8.625 C 11.117188 8.625 8.636719 11.101562 8.636719 14.148438 L 8.636719 23.339844 C 8.636719 26.382812 11.117188 28.863281 14.160156 28.863281 L 23.351562 28.863281 C 26.398438 28.863281 28.875 26.382812 28.875 23.339844 L 28.875 14.160156 C 28.875 11.101562 26.398438 8.625 23.351562 8.625 Z M 27.140625 23.351562 C 27.140625 25.445312 25.445312 27.140625 23.351562 27.140625 L 14.160156 27.140625 C 12.066406 27.140625 10.359375 25.445312 10.359375 23.351562 L 10.359375 14.160156 C 10.359375 12.066406 12.066406 10.359375 14.160156 10.359375 L 23.351562 10.359375 C 25.445312 10.359375 27.140625 12.054688 27.140625 14.160156 Z M 27.140625 23.351562 " fill-opacity="1" fill-rule="nonzero"/><path fill="#eef8eb" d="M 25.519531 13.210938 C 25.519531 13.894531 24.972656 14.457031 24.273438 14.457031 C 23.589844 14.457031 23.027344 13.910156 23.027344 13.210938 C 23.027344 12.527344 23.574219 11.964844 24.273438 11.964844 C 24.972656 11.980469 25.519531 12.527344 25.519531 13.210938 Z M 25.519531 13.210938 " fill-opacity="1" fill-rule="nonzero"/><path fill="#eef8eb" d="M 18.75 13.597656 C 15.914062 13.597656 13.597656 15.914062 13.597656 18.75 C 13.597656 21.585938 15.914062 23.902344 18.75 23.902344 C 21.585938 23.902344 23.902344 21.585938 23.902344 18.75 C 23.902344 15.914062 21.601562 13.597656 18.75 13.597656 Z M 18.75 22.164062 C 16.863281 22.164062 15.335938 20.636719 15.335938 18.75 C 15.335938 16.863281 16.863281 15.335938 18.75 15.335938 C 20.636719 15.335938 22.164062 16.863281 22.164062 18.75 C 22.164062 20.636719 20.636719 22.164062 18.75 22.164062 Z M 18.75 22.164062 " fill-opacity="1" fill-rule="nonzero"/><g clip-path="url(#6014b3cf29)"><path fill="#eef8eb" d="M 18.75 36.375 C 9.039062 36.375 1.125 28.476562 1.125 18.75 C 1.125 9.039062 9.039062 1.125 18.75 1.125 C 28.476562 1.125 36.375 9.039062 36.375 18.75 C 36.375 28.476562 28.476562 36.375 18.75 36.375 Z M 18.75 2.089844 C 9.558594 2.089844 2.089844 9.558594 2.089844 18.75 C 2.089844 27.941406 9.558594 35.410156 18.75 35.410156 C 27.941406 35.410156 35.410156 27.941406 35.410156 18.75 C 35.410156 9.558594 27.941406 2.089844 18.75 2.089844 Z M 18.75 2.089844 " fill-opacity="1" fill-rule="nonzero"/></g></svg>