<svg xmlns="http://www.w3.org/2000/svg" xmlns:xlink="http://www.w3.org/1999/xlink" width="50" zoomAndPan="magnify" viewBox="0 0 37.5 37.499999" height="50" preserveAspectRatio="xMidYMid meet" version="1.0"><defs><clipPath id="ba3c38c686"><path d="M 1.125 1.125 L 36.375 1.125 L 36.375 36.375 L 1.125 36.375 Z M 1.125 1.125 " clip-rule="nonzero"/></clipPath></defs><path fill="#eef8eb" d="M 26.53125 20.917969 L 26.53125 26.261719 L 23.21875 26.261719 L 23.21875 20.917969 C 23.21875 20.144531 23.21875 18.273438 21.527344 18.273438 C 19.597656 18.273438 19.492188 20.21875 19.492188 20.21875 L 19.492188 26.277344 L 16.167969 26.277344 L 16.167969 15.574219 L 19.492188 15.574219 L 19.492188 17.042969 C 20.28125 15.4375 21.882812 15.320312 22.9375 15.320312 C 24.140625 15.320312 25.210938 15.78125 25.832031 16.820312 C 26.367188 17.695312 26.53125 18.941406 26.53125 20.917969 Z M 26.53125 20.917969 " fill-opacity="1" fill-rule="nonzero"/><path fill="#eef8eb" d="M 14.828125 12.203125 C 14.828125 12.457031 14.78125 12.703125 14.683594 12.941406 C 14.585938 13.175781 14.445312 13.386719 14.265625 13.566406 C 14.082031 13.746094 13.875 13.886719 13.636719 13.984375 C 13.402344 14.082031 13.15625 14.132812 12.898438 14.132812 C 12.644531 14.132812 12.398438 14.082031 12.160156 13.984375 C 11.925781 13.886719 11.714844 13.746094 11.535156 13.566406 C 11.355469 13.386719 11.214844 13.175781 11.117188 12.941406 C 11.019531 12.703125 10.96875 12.457031 10.96875 12.203125 C 10.96875 11.945312 11.019531 11.699219 11.117188 11.464844 C 11.214844 11.226562 11.355469 11.019531 11.535156 10.835938 C 11.714844 10.65625 11.925781 10.515625 12.160156 10.417969 C 12.398438 10.320312 12.644531 10.273438 12.898438 10.273438 C 13.15625 10.273438 13.402344 10.320312 13.636719 10.417969 C 13.875 10.515625 14.082031 10.65625 14.265625 10.835938 C 14.445312 11.019531 14.585938 11.226562 14.683594 11.464844 C 14.78125 11.699219 14.828125 11.945312 14.828125 12.203125 Z M 14.828125 12.203125 " fill-opacity="1" fill-rule="nonzero"/><path fill="#eef8eb" d="M 11.25 15.574219 L 14.5625 15.574219 L 14.5625 26.277344 L 11.25 26.277344 Z M 11.25 15.574219 " fill-opacity="1" fill-rule="nonzero"/><g clip-path="url(#ba3c38c686)"><path fill="#eef8eb" d="M 18.75 36.375 C 9.039062 36.375 1.125 28.476562 1.125 18.75 C 1.125 9.023438 9.039062 1.125 18.75 1.125 C 28.460938 1.125 36.375 9.039062 36.375 18.75 C 36.375 28.460938 28.476562 36.375 18.75 36.375 Z M 18.75 2.089844 C 9.558594 2.089844 2.089844 9.558594 2.089844 18.75 C 2.089844 27.941406 9.558594 35.410156 18.75 35.410156 C 27.941406 35.410156 35.410156 27.941406 35.410156 18.75 C 35.410156 9.558594 27.941406 2.089844 18.75 2.089844 Z M 18.75 2.089844 " fill-opacity="1" fill-rule="nonzero"/></g></svg>