<svg xmlns="http://www.w3.org/2000/svg" xmlns:xlink="http://www.w3.org/1999/xlink" width="300" zoomAndPan="magnify" viewBox="0 0 224.87999 67.499998" height="300" preserveAspectRatio="xMidYMid meet" version="1.0"><defs><g/></defs><g fill="#ea23f1" fill-opacity="0.4196"><g transform="translate(6.15181, 61.67168)"><g><path d="M 31.703125 -4.90625 C 31.585938 -4.476562 31.394531 -4.171875 31.125 -3.984375 C 30.863281 -3.796875 30.546875 -3.804688 30.171875 -4.015625 L 2.8125 -17.0625 C 2.28125 -17.320312 2.039062 -17.773438 2.09375 -18.421875 L 3.453125 -29.359375 C 3.515625 -30.003906 3.863281 -30.460938 4.5 -30.734375 L 35 -43.765625 L 35.640625 -43.921875 C 35.910156 -43.921875 36.109375 -43.828125 36.234375 -43.640625 C 36.367188 -43.453125 36.410156 -43.195312 36.359375 -42.875 L 34.921875 -31.140625 C 34.804688 -30.492188 34.429688 -30.035156 33.796875 -29.765625 L 17.453125 -24.140625 C 17.128906 -23.972656 17.128906 -23.8125 17.453125 -23.65625 L 32.34375 -18.015625 C 32.9375 -17.753906 33.175781 -17.300781 33.0625 -16.65625 Z M 31.703125 -4.90625 "/></g></g></g><g fill="#ea23f1" fill-opacity="0.4196"><g transform="translate(40.182554, 61.67168)"><g/></g></g><g fill="#ea23f1" fill-opacity="0.4196"><g transform="translate(55.790037, 61.67168)"><g><path d="M 36.921875 -16.171875 C 36.335938 -10.960938 34.285156 -6.960938 30.765625 -4.171875 C 27.253906 -1.390625 23.035156 0 18.109375 0 L 1.609375 0 C 1.285156 0 1.03125 -0.101562 0.84375 -0.3125 C 0.65625 -0.53125 0.585938 -0.828125 0.640625 -1.203125 L 7.234375 -55.109375 C 7.296875 -55.484375 7.445312 -55.773438 7.6875 -55.984375 C 7.925781 -56.203125 8.207031 -56.3125 8.53125 -56.3125 L 22.6875 -56.3125 C 27.832031 -56.3125 31.835938 -55.222656 34.703125 -53.046875 C 37.578125 -50.878906 39.015625 -47.597656 39.015625 -43.203125 C 39.015625 -42.671875 38.960938 -41.757812 38.859375 -40.46875 C 38.210938 -35.476562 36.253906 -31.773438 32.984375 -29.359375 C 32.660156 -29.203125 32.582031 -29.039062 32.75 -28.875 C 35.644531 -26.414062 37.09375 -22.957031 37.09375 -18.5 C 37.09375 -18.019531 37.035156 -17.242188 36.921875 -16.171875 Z M 20.84375 -43.359375 C 20.570312 -43.359375 20.4375 -43.226562 20.4375 -42.96875 L 19.390625 -34.75 C 19.390625 -34.488281 19.5 -34.359375 19.71875 -34.359375 L 20.1875 -34.359375 C 22.5 -34.359375 23.867188 -35.859375 24.296875 -38.859375 L 24.375 -39.90625 C 24.375 -42.207031 23.351562 -43.359375 21.3125 -43.359375 Z M 18.5 -12.953125 C 19.6875 -12.953125 20.664062 -13.515625 21.4375 -14.640625 C 22.21875 -15.765625 22.609375 -17.375 22.609375 -19.46875 C 22.609375 -20.695312 22.363281 -21.6875 21.875 -22.4375 C 21.394531 -23.195312 20.726562 -23.578125 19.875 -23.578125 L 18.421875 -23.578125 C 18.148438 -23.578125 18.015625 -23.441406 18.015625 -23.171875 L 16.8125 -13.359375 C 16.707031 -13.085938 16.816406 -12.953125 17.140625 -12.953125 Z M 18.5 -12.953125 "/></g></g></g><g fill="#ea23f1" fill-opacity="0.4196"><g transform="translate(93.521531, 61.67168)"><g><path d="M 16.734375 0.640625 C 12.117188 0.640625 8.46875 -0.550781 5.78125 -2.9375 C 3.101562 -5.320312 1.765625 -8.5 1.765625 -12.46875 C 1.765625 -12.84375 1.820312 -13.515625 1.9375 -14.484375 L 2.25 -16.96875 C 2.300781 -17.34375 2.445312 -17.640625 2.6875 -17.859375 C 2.9375 -18.078125 3.222656 -18.1875 3.546875 -18.1875 L 15.765625 -18.1875 C 16.085938 -18.1875 16.34375 -18.078125 16.53125 -17.859375 C 16.71875 -17.640625 16.785156 -17.34375 16.734375 -16.96875 L 16.578125 -15.203125 C 16.460938 -14.347656 16.566406 -13.648438 16.890625 -13.109375 C 17.210938 -12.578125 17.695312 -12.3125 18.34375 -12.3125 C 19.039062 -12.3125 19.628906 -12.601562 20.109375 -13.1875 C 20.597656 -13.78125 20.84375 -14.503906 20.84375 -15.359375 C 20.84375 -16.171875 20.453125 -17.003906 19.671875 -17.859375 C 18.890625 -18.710938 17.398438 -20.023438 15.203125 -21.796875 C 13.054688 -23.566406 11.285156 -25.132812 9.890625 -26.5 C 8.492188 -27.875 7.285156 -29.566406 6.265625 -31.578125 C 5.253906 -33.585938 4.75 -35.878906 4.75 -38.453125 C 4.75 -38.941406 4.800781 -39.773438 4.90625 -40.953125 C 5.5 -45.722656 7.484375 -49.582031 10.859375 -52.53125 C 14.242188 -55.476562 18.457031 -56.953125 23.5 -56.953125 C 28.101562 -56.953125 31.734375 -55.71875 34.390625 -53.25 C 37.046875 -50.789062 38.375 -47.46875 38.375 -43.28125 C 38.375 -42.800781 38.320312 -42.023438 38.21875 -40.953125 L 37.96875 -39.1875 C 37.914062 -38.8125 37.769531 -38.515625 37.53125 -38.296875 C 37.289062 -38.078125 37.007812 -37.96875 36.6875 -37.96875 L 24.53125 -37.96875 C 24.21875 -37.96875 23.96875 -38.078125 23.78125 -38.296875 C 23.59375 -38.515625 23.523438 -38.8125 23.578125 -39.1875 L 23.8125 -41.265625 C 23.863281 -42.078125 23.710938 -42.738281 23.359375 -43.25 C 23.015625 -43.757812 22.523438 -44.015625 21.890625 -44.015625 C 21.128906 -44.015625 20.507812 -43.691406 20.03125 -43.046875 C 19.550781 -42.398438 19.3125 -41.539062 19.3125 -40.46875 C 19.3125 -39.550781 19.6875 -38.609375 20.4375 -37.640625 C 21.1875 -36.679688 22.582031 -35.34375 24.625 -33.625 C 27.351562 -31.320312 29.441406 -29.457031 30.890625 -28.03125 C 32.335938 -26.613281 33.476562 -25.0625 34.3125 -23.375 C 35.144531 -21.6875 35.5625 -19.769531 35.5625 -17.625 C 35.5625 -17.1875 35.507812 -16.429688 35.40625 -15.359375 C 34.757812 -10.484375 32.734375 -6.597656 29.328125 -3.703125 C 25.921875 -0.804688 21.722656 0.640625 16.734375 0.640625 Z M 16.734375 0.640625 "/></g></g></g><g fill="#ea23f1" fill-opacity="0.4196"><g transform="translate(129.644004, 61.67168)"><g/></g></g><g fill="#ea23f1" fill-opacity="0.4196"><g transform="translate(145.251487, 61.67168)"><g><path d="M 0.484375 0 C -0.160156 0 -0.484375 -0.238281 -0.484375 -0.71875 L -0.328125 -1.375 L 25.34375 -55.359375 C 25.613281 -55.992188 26.097656 -56.3125 26.796875 -56.3125 L 39.09375 -56.3125 C 39.6875 -56.3125 39.984375 -56.070312 39.984375 -55.59375 L 39.828125 -54.953125 L 14.15625 -0.96875 C 13.882812 -0.320312 13.40625 0 12.71875 0 Z M 0.484375 0 "/></g></g></g><g fill="#ea23f1" fill-opacity="0.4196"><g transform="translate(181.937118, 61.67168)"><g><path d="M 1.125 -3.859375 C 0.59375 -3.859375 0.378906 -4.207031 0.484375 -4.90625 L 1.84375 -16.65625 C 1.957031 -17.300781 2.335938 -17.753906 2.984375 -18.015625 L 19.3125 -23.65625 C 19.632812 -23.8125 19.660156 -23.972656 19.390625 -24.140625 L 4.421875 -29.765625 C 3.835938 -30.035156 3.597656 -30.492188 3.703125 -31.140625 L 5.15625 -42.875 C 5.207031 -43.3125 5.363281 -43.625 5.625 -43.8125 C 5.894531 -44 6.21875 -43.984375 6.59375 -43.765625 L 33.953125 -30.734375 C 34.484375 -30.460938 34.722656 -30.003906 34.671875 -29.359375 L 33.3125 -18.421875 C 33.257812 -17.773438 32.910156 -17.320312 32.265625 -17.0625 L 1.765625 -4.015625 Z M 1.125 -3.859375 "/></g></g></g><g fill="#ffffff" fill-opacity="1"><g transform="translate(3.760177, 59.518243)"><g><path d="M 31.703125 -4.90625 C 31.585938 -4.476562 31.394531 -4.171875 31.125 -3.984375 C 30.863281 -3.796875 30.546875 -3.804688 30.171875 -4.015625 L 2.8125 -17.0625 C 2.28125 -17.320312 2.039062 -17.773438 2.09375 -18.421875 L 3.453125 -29.359375 C 3.515625 -30.003906 3.863281 -30.460938 4.5 -30.734375 L 35 -43.765625 L 35.640625 -43.921875 C 35.910156 -43.921875 36.109375 -43.828125 36.234375 -43.640625 C 36.367188 -43.453125 36.410156 -43.195312 36.359375 -42.875 L 34.921875 -31.140625 C 34.804688 -30.492188 34.429688 -30.035156 33.796875 -29.765625 L 17.453125 -24.140625 C 17.128906 -23.972656 17.128906 -23.8125 17.453125 -23.65625 L 32.34375 -18.015625 C 32.9375 -17.753906 33.175781 -17.300781 33.0625 -16.65625 Z M 31.703125 -4.90625 "/></g></g></g><g fill="#ffffff" fill-opacity="1"><g transform="translate(37.79092, 59.518243)"><g/></g></g><g fill="#ffffff" fill-opacity="1"><g transform="translate(53.398403, 59.518243)"><g><path d="M 36.921875 -16.171875 C 36.335938 -10.960938 34.285156 -6.960938 30.765625 -4.171875 C 27.253906 -1.390625 23.035156 0 18.109375 0 L 1.609375 0 C 1.285156 0 1.03125 -0.101562 0.84375 -0.3125 C 0.65625 -0.53125 0.585938 -0.828125 0.640625 -1.203125 L 7.234375 -55.109375 C 7.296875 -55.484375 7.445312 -55.773438 7.6875 -55.984375 C 7.925781 -56.203125 8.207031 -56.3125 8.53125 -56.3125 L 22.6875 -56.3125 C 27.832031 -56.3125 31.835938 -55.222656 34.703125 -53.046875 C 37.578125 -50.878906 39.015625 -47.597656 39.015625 -43.203125 C 39.015625 -42.671875 38.960938 -41.757812 38.859375 -40.46875 C 38.210938 -35.476562 36.253906 -31.773438 32.984375 -29.359375 C 32.660156 -29.203125 32.582031 -29.039062 32.75 -28.875 C 35.644531 -26.414062 37.09375 -22.957031 37.09375 -18.5 C 37.09375 -18.019531 37.035156 -17.242188 36.921875 -16.171875 Z M 20.84375 -43.359375 C 20.570312 -43.359375 20.4375 -43.226562 20.4375 -42.96875 L 19.390625 -34.75 C 19.390625 -34.488281 19.5 -34.359375 19.71875 -34.359375 L 20.1875 -34.359375 C 22.5 -34.359375 23.867188 -35.859375 24.296875 -38.859375 L 24.375 -39.90625 C 24.375 -42.207031 23.351562 -43.359375 21.3125 -43.359375 Z M 18.5 -12.953125 C 19.6875 -12.953125 20.664062 -13.515625 21.4375 -14.640625 C 22.21875 -15.765625 22.609375 -17.375 22.609375 -19.46875 C 22.609375 -20.695312 22.363281 -21.6875 21.875 -22.4375 C 21.394531 -23.195312 20.726562 -23.578125 19.875 -23.578125 L 18.421875 -23.578125 C 18.148438 -23.578125 18.015625 -23.441406 18.015625 -23.171875 L 16.8125 -13.359375 C 16.707031 -13.085938 16.816406 -12.953125 17.140625 -12.953125 Z M 18.5 -12.953125 "/></g></g></g><g fill="#ffffff" fill-opacity="1"><g transform="translate(91.129898, 59.518243)"><g><path d="M 16.734375 0.640625 C 12.117188 0.640625 8.46875 -0.550781 5.78125 -2.9375 C 3.101562 -5.320312 1.765625 -8.5 1.765625 -12.46875 C 1.765625 -12.84375 1.820312 -13.515625 1.9375 -14.484375 L 2.25 -16.96875 C 2.300781 -17.34375 2.445312 -17.640625 2.6875 -17.859375 C 2.9375 -18.078125 3.222656 -18.1875 3.546875 -18.1875 L 15.765625 -18.1875 C 16.085938 -18.1875 16.34375 -18.078125 16.53125 -17.859375 C 16.71875 -17.640625 16.785156 -17.34375 16.734375 -16.96875 L 16.578125 -15.203125 C 16.460938 -14.347656 16.566406 -13.648438 16.890625 -13.109375 C 17.210938 -12.578125 17.695312 -12.3125 18.34375 -12.3125 C 19.039062 -12.3125 19.628906 -12.601562 20.109375 -13.1875 C 20.597656 -13.78125 20.84375 -14.503906 20.84375 -15.359375 C 20.84375 -16.171875 20.453125 -17.003906 19.671875 -17.859375 C 18.890625 -18.710938 17.398438 -20.023438 15.203125 -21.796875 C 13.054688 -23.566406 11.285156 -25.132812 9.890625 -26.5 C 8.492188 -27.875 7.285156 -29.566406 6.265625 -31.578125 C 5.253906 -33.585938 4.75 -35.878906 4.75 -38.453125 C 4.75 -38.941406 4.800781 -39.773438 4.90625 -40.953125 C 5.5 -45.722656 7.484375 -49.582031 10.859375 -52.53125 C 14.242188 -55.476562 18.457031 -56.953125 23.5 -56.953125 C 28.101562 -56.953125 31.734375 -55.71875 34.390625 -53.25 C 37.046875 -50.789062 38.375 -47.46875 38.375 -43.28125 C 38.375 -42.800781 38.320312 -42.023438 38.21875 -40.953125 L 37.96875 -39.1875 C 37.914062 -38.8125 37.769531 -38.515625 37.53125 -38.296875 C 37.289062 -38.078125 37.007812 -37.96875 36.6875 -37.96875 L 24.53125 -37.96875 C 24.21875 -37.96875 23.96875 -38.078125 23.78125 -38.296875 C 23.59375 -38.515625 23.523438 -38.8125 23.578125 -39.1875 L 23.8125 -41.265625 C 23.863281 -42.078125 23.710938 -42.738281 23.359375 -43.25 C 23.015625 -43.757812 22.523438 -44.015625 21.890625 -44.015625 C 21.128906 -44.015625 20.507812 -43.691406 20.03125 -43.046875 C 19.550781 -42.398438 19.3125 -41.539062 19.3125 -40.46875 C 19.3125 -39.550781 19.6875 -38.609375 20.4375 -37.640625 C 21.1875 -36.679688 22.582031 -35.34375 24.625 -33.625 C 27.351562 -31.320312 29.441406 -29.457031 30.890625 -28.03125 C 32.335938 -26.613281 33.476562 -25.0625 34.3125 -23.375 C 35.144531 -21.6875 35.5625 -19.769531 35.5625 -17.625 C 35.5625 -17.1875 35.507812 -16.429688 35.40625 -15.359375 C 34.757812 -10.484375 32.734375 -6.597656 29.328125 -3.703125 C 25.921875 -0.804688 21.722656 0.640625 16.734375 0.640625 Z M 16.734375 0.640625 "/></g></g></g><g fill="#ffffff" fill-opacity="1"><g transform="translate(127.25237, 59.518243)"><g/></g></g><g fill="#ffffff" fill-opacity="1"><g transform="translate(142.859853, 59.518243)"><g><path d="M 0.484375 0 C -0.160156 0 -0.484375 -0.238281 -0.484375 -0.71875 L -0.328125 -1.375 L 25.34375 -55.359375 C 25.613281 -55.992188 26.097656 -56.3125 26.796875 -56.3125 L 39.09375 -56.3125 C 39.6875 -56.3125 39.984375 -56.070312 39.984375 -55.59375 L 39.828125 -54.953125 L 14.15625 -0.96875 C 13.882812 -0.320312 13.40625 0 12.71875 0 Z M 0.484375 0 "/></g></g></g><g fill="#ffffff" fill-opacity="1"><g transform="translate(179.545484, 59.518243)"><g><path d="M 1.125 -3.859375 C 0.59375 -3.859375 0.378906 -4.207031 0.484375 -4.90625 L 1.84375 -16.65625 C 1.957031 -17.300781 2.335938 -17.753906 2.984375 -18.015625 L 19.3125 -23.65625 C 19.632812 -23.8125 19.660156 -23.972656 19.390625 -24.140625 L 4.421875 -29.765625 C 3.835938 -30.035156 3.597656 -30.492188 3.703125 -31.140625 L 5.15625 -42.875 C 5.207031 -43.3125 5.363281 -43.625 5.625 -43.8125 C 5.894531 -44 6.21875 -43.984375 6.59375 -43.765625 L 33.953125 -30.734375 C 34.484375 -30.460938 34.722656 -30.003906 34.671875 -29.359375 L 33.3125 -18.421875 C 33.257812 -17.773438 32.910156 -17.320312 32.265625 -17.0625 L 1.765625 -4.015625 Z M 1.125 -3.859375 "/></g></g></g></svg>