<svg xmlns="http://www.w3.org/2000/svg" xmlns:xlink="http://www.w3.org/1999/xlink" width="50" zoomAndPan="magnify" viewBox="0 0 37.5 37.499999" height="50" preserveAspectRatio="xMidYMid meet" version="1.0"><defs><clipPath id="6f969b1345"><path d="M 1.125 1.125 L 36.375 1.125 L 36.375 36.375 L 1.125 36.375 Z M 1.125 1.125 " clip-rule="nonzero"/></clipPath></defs><path fill="#eef8eb" d="M 19.714844 8.015625 C 14.324219 8.015625 9.945312 12.394531 9.945312 17.785156 C 9.945312 19.550781 10.421875 21.257812 11.3125 22.757812 L 9.988281 27.523438 L 14.992188 26.335938 C 16.433594 27.140625 18.050781 27.554688 19.714844 27.554688 C 25.105469 27.554688 29.484375 23.175781 29.484375 17.785156 C 29.484375 12.394531 25.105469 8.015625 19.714844 8.015625 Z M 19.714844 25.953125 C 18.230469 25.953125 16.789062 25.550781 15.527344 24.808594 L 15.246094 24.644531 L 12.261719 25.34375 L 13.046875 22.507812 L 12.855469 22.210938 C 12.007812 20.902344 11.5625 19.359375 11.5625 17.785156 C 11.5625 13.285156 15.230469 9.617188 19.730469 9.617188 C 24.230469 9.617188 27.898438 13.285156 27.898438 17.785156 C 27.882812 22.296875 24.214844 25.953125 19.714844 25.953125 Z M 19.714844 25.953125 " fill-opacity="1" fill-rule="nonzero"/><path fill="#eef8eb" d="M 24.363281 21.304688 C 24.289062 21.703125 23.425781 22.210938 22.878906 22.359375 C 21.511719 22.714844 19.597656 21.675781 17.695312 20.027344 C 15.78125 18.363281 14.488281 16.613281 14.667969 15.214844 C 14.726562 14.667969 15.128906 13.730469 15.511719 13.613281 C 15.882812 13.492188 16.152344 13.597656 16.539062 13.730469 C 16.730469 13.9375 16.96875 14.207031 17.234375 14.503906 C 17.59375 14.902344 17.828125 15.277344 17.992188 15.527344 C 18.113281 15.734375 18.066406 16.003906 17.890625 16.167969 L 17.234375 16.746094 C 17.117188 16.847656 17.070312 17.027344 17.144531 17.160156 C 17.355469 17.59375 17.828125 18.484375 18.527344 19.089844 C 19.226562 19.699219 20.175781 20.042969 20.621094 20.191406 C 20.769531 20.234375 20.933594 20.175781 21.023438 20.042969 L 21.511719 19.3125 C 21.644531 19.121094 21.914062 19.03125 22.136719 19.121094 C 22.402344 19.238281 22.804688 19.417969 23.25 19.714844 C 23.589844 19.9375 23.871094 20.144531 24.109375 20.308594 C 24.289062 20.664062 24.4375 20.917969 24.363281 21.304688 Z M 24.363281 21.304688 " fill-opacity="1" fill-rule="nonzero"/><g clip-path="url(#6f969b1345)"><path fill="#eef8eb" d="M 18.75 36.375 C 9.039062 36.375 1.125 28.476562 1.125 18.75 C 1.125 9.039062 9.039062 1.125 18.75 1.125 C 28.460938 1.125 36.375 9.039062 36.375 18.75 C 36.375 28.476562 28.476562 36.375 18.75 36.375 Z M 18.75 2.089844 C 9.558594 2.089844 2.089844 9.558594 2.089844 18.75 C 2.089844 27.941406 9.558594 35.410156 18.75 35.410156 C 27.941406 35.410156 35.410156 27.941406 35.410156 18.75 C 35.410156 9.558594 27.941406 2.089844 18.75 2.089844 Z M 18.75 2.089844 " fill-opacity="1" fill-rule="nonzero"/></g></svg>